<?xml version="1.0" encoding="utf-8"?>
<?xml-stylesheet type="text/xsl" href="rss1.xsl"?>
<rss version="2.0" xmlns:atom="http://www.w3.org/2005/Atom" xmlns:content="http://purl.org/rss/1.0/modules/content/" xmlns:dc="http://purl.org/dc/elements/1.1/" xmlns:media="http://search.yahoo.com/mrss/">
<channel>
 <title>Getty</title>
 <link>http://www.gettyimg.com/</link>
 <atom:link href="http://www.gettyimg.com/" rel="self" type="application/rss+xml" />

 
                <item>
                <title><![CDATA[【Singles (lossy)】Dolby Atmos - Jack Harlow - Lovin On Me [E-AC3-JOC 16bits/48kHz 5.1 768kbits]]]></title>
                <link><![CDATA[https://sharemania.us/threads/jack-harlow-lovin-on-me-e-ac3-joc-16bits-48khz-5-1-768kbits.238528/]]></link>
                <description><![CDATA[<article>
<blockquote class="messageText SelectQuoteContainer ugc baseHtml">
<img src="https://images2.imgbox.com/51/c8/GLmRpkzI_o.jpg" class="bbCodeImage LbImage" alt="[​IMG]" data-url="https://images2.imgbox.com/51/c8/GLmRpkzI_o.jpg" style=""> <br>
<b>Title: Lovin On Me<br>
Album: Lovin On Me - Single<br>
Artist: Jack Harlow<br>
Duration: 2m 18s<br>
Source: Apple Music<br>
<div class="bbCodeBlock bbCodeVfcHH HiddenContent">
<div class="attribution type">Hidden Content:</div>
<blockquote>You must reply before you can see the hidden data contained here.</blockquote>
</div></b>
<div class="messageTextEndMarker">&nbsp;</div>
</blockquote>
</article>]]></description>
                <author><![CDATA[Cauã]]></author>
                </item>

                
                <item>
                <title><![CDATA[【PRORES HD】Taylor Swift - You Need To Calm Down (USUMV1900817) [PRORES 1080p]]]></title>
                <link><![CDATA[https://sharemania.us/threads/taylor-swift-you-need-to-calm-down-usumv1900817-prores-1080p.238529/]]></link>
                <description><![CDATA[<article>
<blockquote class="messageText SelectQuoteContainer ugc baseHtml">
Since it has been leaked already.<br>
<br>
<img src="https://i.imgur.com/sGf4lRq.png" class="bbCodeImage LbImage" alt="[​IMG]" data-url="https://i.imgur.com/sGf4lRq.png" style=""><br>
<br>
<div class="ToggleTriggerAnchor bbCodeSpoilerContainer">
<button type="button" class="button bbCodeSpoilerButton ToggleTrigger Tooltip JsOnly" data-target="> .SpoilerTarget"><span>Spoiler: <span class="SpoilerTitle">MediaInfo</span></span></button>
<div class="SpoilerTarget bbCodeSpoilerText">General<br>
Format : MPEG-4<br>
Format profile : QuickTime<br>
Codec ID : qt 2005.03 (qt )<br>
File size : 4.44 GiB<br>
Duration : 3 min 29 s<br>
Overall bit rate mode : Variable<br>
Overall bit rate : 182 Mb/s<br>
Frame rate : 23.976 FPS<br>
Encoded date : 2019-06-14 02:36:39 UTC<br>
Tagged date : 2019-06-14 02:36:58 UTC<br>
Writing library : Apple QuickTime<br>
TIM : 00:00:00:14<br>
TSC : 24000<br>
TSZ : 1001<br>
<br>
Video<br>
ID : 1<br>
Format : ProRes<br>
Format version : Version 0<br>
Format profile : 422 HQ<br>
Codec ID : apch<br>
Duration : 3 min 29 s<br>
Bit rate mode : Variable<br>
Bit rate : 180 Mb/s<br>
Width : 1 920 pixels<br>
Height : 1 080 pixels<br>
Display aspect ratio : 16:9<br>
Frame rate mode : Constant<br>
Frame rate : 23.976 (24000/1001) FPS<br>
Color space : YUV<br>
Chroma subsampling : 4:2:2<br>
Scan type : Progressive<br>
Bits/(Pixel*Frame) : 3.630<br>
Stream size : 4.40 GiB (99%)<br>
Writing library : afl0<br>
Language : English<br>
Encoded date : 2019-06-14 02:36:39 UTC<br>
Tagged date : 2019-06-14 02:36:39 UTC<br>
Color primaries : BT.709<br>
Transfer characteristics : BT.709<br>
Matrix coefficients : BT.709<br>
<br>
Audio<br>
ID : 2<br>
Format : PCM<br>
Format settings : Little / Signed<br>
Codec ID : sowt<br>
Duration : 3 min 29 s<br>
Bit rate mode : Constant<br>
Bit rate : 1 536 kb/s<br>
Channel(s) : 2 channels<br>
Channel layout : L R<br>
Sampling rate : 48.0 kHz<br>
Bit depth : 16 bits<br>
Stream size : 38.3 MiB (1%)<br>
Language : English<br>
Encoded date : 2019-06-14 02:36:39 UTC<br>
Tagged date : 2019-06-14 02:36:39 UTC<br>
<br>
Other<br>
ID : 3<br>
Type : Time code<br>
Format : QuickTime TC<br>
Duration : 3 min 29 s<br>
Frame rate : 23.976 (24000/1001) FPS<br>
Time code of first frame : 00:00:00:14<br>
Time code of last frame : 00:03:29:17<br>
Time code, stripped : Yes<br>
Language : English<br>
Encoded date : 2019-06-14 02:36:39 UTC<br>
Tagged date : 2019-06-14 02:36:39 UTC</div>
</div><br>
<div class="bbCodeBlock bbCodeVfcHH HiddenContent">
<div class="attribution type">Hidden Content:</div>
<blockquote>You must reply before you can see the hidden data contained here.</blockquote>
</div>
<div class="messageTextEndMarker">&nbsp;</div>
</blockquote>
</article>]]></description>
                <author><![CDATA[Lalynsantiago]]></author>
                </item>

                </channel></rss>